<svg width="180" height="60" viewBox="0 0 180 60" fill="none" xmlns="http://www.w3.org/2000/svg">
<rect width="180" height="60" rx="30" fill="#AECEF3"/>
<rect width="180" height="60" rx="30" fill="url(#paint0_linear_1_605)"/>
<path fill-rule="evenodd" clip-rule="evenodd" d="M46.7787 22.5521C46.9184 23.1822 46.9409 23.8267 46.8489 24.4574C49.1368 24.9914 50.9404 26.6714 51.5359 28.8423L51.6229 29.1595C52.2444 31.4252 52.0948 33.819 51.1954 35.9993L51.0898 36.2554C50.125 38.5943 47.9283 40.2766 45.3122 40.6801L44.4608 40.8114C42.831 41.0629 41.169 41.0629 39.5391 40.8114L38.6877 40.6801C36.0717 40.2766 33.875 38.5942 32.9102 36.2554L32.8046 35.9993C31.9052 33.819 31.7556 31.4252 32.3771 29.1595L32.4641 28.8423C33.0596 26.6714 34.8632 24.9914 37.1511 24.4574C37.0591 23.8267 37.0816 23.1822 37.2213 22.5521C37.6136 20.782 39.101 19.4149 40.9804 19.097L41.114 19.0744C41.7 18.9752 42.3 18.9752 42.8861 19.0744L43.0196 19.097C44.899 19.4149 46.3864 20.782 46.7787 22.5521ZM41.4314 20.7586C41.8075 20.695 42.1925 20.695 42.5686 20.7586L42.7022 20.7812C43.8567 20.9765 44.7704 21.8164 45.0114 22.9037C45.1029 23.3164 45.1218 23.7381 45.0697 24.1522C43.033 23.8854 40.9671 23.8854 38.9303 24.1522C38.8783 23.7381 38.8971 23.3164 38.9886 22.9037C39.2296 21.8164 40.1434 20.9765 41.2978 20.7812L41.4314 20.7586Z" fill="white"/>
<path d="M64.2614 36L65.3295 32.9205H69.875L70.9375 36H72.8011L68.6136 24.3636H66.5852L62.3977 36H64.2614ZM65.8409 31.4432L67.5568 26.4773H67.6477L69.3636 31.4432H65.8409ZM77.4716 36.1705C79.0625 36.1705 79.6875 35.1989 79.9943 34.642H80.1364V36H81.7955V24.3636H80.0966V28.6875H79.9943C79.6875 28.1477 79.108 27.1591 77.483 27.1591C75.375 27.1591 73.8239 28.8239 73.8239 31.6534C73.8239 34.4773 75.3523 36.1705 77.4716 36.1705ZM77.8466 34.7216C76.3295 34.7216 75.5398 33.3864 75.5398 31.6364C75.5398 29.9034 76.3125 28.6023 77.8466 28.6023C79.3295 28.6023 80.125 29.8125 80.125 31.6364C80.125 33.4716 79.3125 34.7216 77.8466 34.7216ZM87.4872 36.1705C89.0781 36.1705 89.7031 35.1989 90.0099 34.642H90.152V36H91.8111V24.3636H90.1122V28.6875H90.0099C89.7031 28.1477 89.1236 27.1591 87.4986 27.1591C85.3906 27.1591 83.8395 28.8239 83.8395 31.6534C83.8395 34.4773 85.3679 36.1705 87.4872 36.1705ZM87.8622 34.7216C86.3452 34.7216 85.5554 33.3864 85.5554 31.6364C85.5554 29.9034 86.3281 28.6023 87.8622 28.6023C89.3452 28.6023 90.1406 29.8125 90.1406 31.6364C90.1406 33.4716 89.3281 34.7216 87.8622 34.7216ZM102.544 27.2727H100.754V25.1818H99.0554V27.2727H97.777V28.6364H99.0554V33.7898C99.0497 35.375 100.26 36.142 101.601 36.1136C102.141 36.108 102.504 36.0057 102.703 35.9318L102.396 34.5284C102.283 34.5511 102.072 34.6023 101.8 34.6023C101.249 34.6023 100.754 34.4205 100.754 33.4375V28.6364H102.544V27.2727ZM108.006 36.1761C110.466 36.1761 112.074 34.375 112.074 31.6761C112.074 28.9602 110.466 27.1591 108.006 27.1591C105.545 27.1591 103.938 28.9602 103.938 31.6761C103.938 34.375 105.545 36.1761 108.006 36.1761ZM108.011 34.75C106.403 34.75 105.653 33.3466 105.653 31.6705C105.653 30 106.403 28.5795 108.011 28.5795C109.608 28.5795 110.358 30 110.358 31.6705C110.358 33.3466 109.608 34.75 108.011 34.75ZM121.881 36.1761C123.943 36.1761 125.278 34.9375 125.466 33.2386H123.812C123.597 34.1818 122.864 34.7386 121.892 34.7386C120.455 34.7386 119.528 33.5398 119.528 31.6364C119.528 29.767 120.472 28.5909 121.892 28.5909C122.972 28.5909 123.631 29.2727 123.812 30.0909H125.466C125.284 28.3295 123.847 27.1591 121.864 27.1591C119.403 27.1591 117.812 29.0114 117.812 31.6761C117.812 34.3068 119.347 36.1761 121.881 36.1761ZM129.822 36.1932C131.266 36.1932 132.078 35.4602 132.402 34.8068H132.47V36H134.129V30.2045C134.129 27.6648 132.129 27.1591 130.743 27.1591C129.163 27.1591 127.709 27.7955 127.141 29.3864L128.737 29.75C128.987 29.1307 129.624 28.5341 130.766 28.5341C131.862 28.5341 132.425 29.108 132.425 30.0966V30.1364C132.425 30.7557 131.788 30.7443 130.22 30.9261C128.567 31.1193 126.874 31.5511 126.874 33.5341C126.874 35.25 128.163 36.1932 129.822 36.1932ZM130.192 34.8295C129.232 34.8295 128.538 34.3977 128.538 33.5568C128.538 32.6477 129.345 32.3239 130.328 32.1932C130.879 32.1193 132.186 31.9716 132.43 31.7273V32.8523C132.43 33.8864 131.607 34.8295 130.192 34.8295ZM136.392 36H138.091V30.6705C138.091 29.5284 138.972 28.7045 140.176 28.7045C140.528 28.7045 140.926 28.767 141.062 28.8068V27.1818C140.892 27.1591 140.557 27.142 140.341 27.142C139.318 27.142 138.443 27.7216 138.125 28.6591H138.034V27.2727H136.392V36ZM147.122 27.2727H145.332V25.1818H143.634V27.2727H142.355V28.6364H143.634V33.7898C143.628 35.375 144.838 36.142 146.179 36.1136C146.719 36.108 147.082 36.0057 147.281 35.9318L146.974 34.5284C146.861 34.5511 146.651 34.6023 146.378 34.6023C145.827 34.6023 145.332 34.4205 145.332 33.4375V28.6364H147.122V27.2727Z" fill="white"/>
<defs>
<linearGradient id="paint0_linear_1_605" x1="-41.04" y1="-2.59316e-07" x2="232.887" y2="38.0171" gradientUnits="userSpaceOnUse">
<stop stop-color="#DFEBFF"/>
<stop offset="1" stop-color="#88ADCA"/>
</linearGradient>
</defs>
</svg>
